# xmcd
#
# Track frame offsets:
#	150
#	24780
#	44674
#	68978
#	91347
#	109959
#	133641
#	157904
#	180372
#	203240
#	223874
#	246523
#
# Disc length: 3594 seconds
#
# Revision: 1
# Processed by: cddbd v1.5.2PL0 Copyright (c) Steve Scherf et al.
# Submitted via: EZCDAudioConverter 8.0.2.1
#
DISCID=a90e080c
DTITLE=Phi Nhung - Chắc Gì
DYEAR=2010
DGENRE=
TTITLE0=Chờ anh hát lý duyên tình
TTITLE1=Sài Gòn nhớ em
TTITLE2=Duyên quê
TTITLE3=Chuyện tình quán bên hồ
TTITLE4=Mộng ảo
TTITLE5=Phận tơ tằm
TTITLE6=Định mệnh
TTITLE7=Đồng sâu xứ lạ
TTITLE8=Ngày buồn
TTITLE9=Ai yêu không khổ vì yêu
TTITLE10=Chắc Gì
TTITLE11=Áo mới Cà Mau
EXTD=
EXTT0=
EXTT1=
EXTT2=
EXTT3=
EXTT4=
EXTT5=
EXTT6=
EXTT7=
EXTT8=
EXTT9=
EXTT10=
EXTT11=
PLAYORDER=
